<svg xmlns="http://www.w3.org/2000/svg" width="454.63" height="405.8" viewBox="0 0 454.63 405.8"><title>hambMenu</title><g id="bf887ff0-bc25-47c1-a673-6c17489eb7c3" data-name="BG"><rect x="4.63" width="450" height="405.8"/></g><g id="fd7008ad-70e2-40d1-896b-e6f94e96152f" data-name="Lines"><path d="M143.57,139a87.23,87.23,0,0,1-20.43-2.65,152.84,152.84,0,0,1-18.73-6.24c2.33.93,4.72,1.76,7.09,2.61s4.81,1.55,7.26,2.18a53.55,53.55,0,0,1-19.13-9.7c1.4-.27,3.06.37,4.61.91s3,.94,4,0c8.14,3.45,16.49,6.78,25.15,9.51a154.78,154.78,0,0,0,26.46,6c-3.49,2.78-6.49,2.25-9.06.87-1.29-.68-2.49-1.48-3.67-2.2A7.84,7.84,0,0,0,143.57,139Z" transform="translate(7.34 2.4)" fill="#fff"/><path d="M84.3,112.92c1.49.9,2.92,1.8,4.32,2.7A15.18,15.18,0,0,1,84.3,112.92Z" transform="translate(7.34 2.4)" fill="#fff"/><path d="M241.22,93.81A38.48,38.48,0,0,1,245.55,91,17.52,17.52,0,0,1,241.22,93.81Z" transform="translate(7.34 2.4)" fill="#fff"/><path d="M166.27,126.14a19.26,19.26,0,0,1,2.83-1.28,198.13,198.13,0,0,0,22.38-1.52c-2,.29-4.07.79-6.12,1.29s-4.13,1.06-6.25,1.43c-1.06.2-2.12.38-3.18.53s-2.15.2-3.23.24A22,22,0,0,1,166.27,126.14Z" transform="translate(7.34 2.4)" fill="#fff"/><path d="M158.17,121.35a38.4,38.4,0,0,1-21-5A53.24,53.24,0,0,0,158.17,121.35Z" transform="translate(7.34 2.4)" fill="#fff"/><path d="M276.25,45.39a1.68,1.68,0,0,1-.2-1.15,1.5,1.5,0,0,0,.26-.77c2.91-.69,5.86-1.35,8.8-2-.56.53-.8,1.62-1.46,2C280.4,44.17,278.87,42.51,276.25,45.39Z" transform="translate(7.34 2.4)" fill="#fff"/><path d="M239.56,94.75l-.06.31-1.44,1-.26,0A11.65,11.65,0,0,1,239.56,94.75Z" transform="translate(7.34 2.4)" fill="#fff"/><path d="M272.79,46.75a9.68,9.68,0,0,0-1.4-2.08l4.89-1.2a3.75,3.75,0,0,0-.23.77C275.32,45.27,273.39,45.2,272.79,46.75Z" transform="translate(7.34 2.4)" fill="#fff"/><path d="M237.13,56.28c-.86.46-.87,2.47-1.1,3.08a45.14,45.14,0,0,0-8.57.6c-.22.61-1.08,1-1.52,2.27a12.75,12.75,0,0,0-2.35-1c5.93-2.43,12.13-5,18.76-7.46A32.69,32.69,0,0,1,237.13,56.28Z" transform="translate(7.34 2.4)" fill="#fff"/><path d="M410.82,37.55a33,33,0,0,1-3.75-.72c-1.26-.28-2.53-.59-3.81-.95l-1.92-.55-1.94-.49c-1.31-.32-2.62-.71-3.94-1-5.27-1.1-10.74-1.3-15.51,1.1,5.6,1.46,12.13,2.94,17.15,5.33a29.21,29.21,0,0,1,3.44,1.91,16.64,16.64,0,0,1,2.64,2.25,7.11,7.11,0,0,1,2.12,5.35c-.12,2-1,2.8-2.36,2.92s-3.22-.41-5.37-1.14C393.34,50,387.75,47.94,383.8,48c1,.83,1,.83,2,1.73-1-.91-2-1.73-2.93-.83a17.13,17.13,0,0,0,1.78,1.27c.66.45,1.35.93,2,1.43a7.48,7.48,0,0,1,2.86,3.43c-.62.54-1.24,1.15-1.84,1.72,2.2,3.08,5.28,5.24,8.13,7.53A33.78,33.78,0,0,1,399.73,68a14.6,14.6,0,0,1,2.68,4.49A28.78,28.78,0,0,0,387,60.09a46,46,0,0,0-21.36-1.83,93.36,93.36,0,0,0-22.46,6.16c-7.39,2.91-14.58,6.36-21.63,9.67a102.13,102.13,0,0,0-20.46,16.43,223.23,223.23,0,0,0-17.18,20.11c-2.24,2.23-9,5-14.06,6.7-7.88,5.26-16,10.53-23.82,17.24-8.93,5.8-19.1,9.56-30,12.56s-22.78,5.17-35.76,7.52c-2.6.47-6-1-7-3.09s.17-4.63,6.1-6.56a297.09,297.09,0,0,1,28-10.08c-.35,2.66-5.19,2.54-6.81,4.84a60.26,60.26,0,0,0,19.59-4.2c-2.1.87-4.3,1.66-6.45,2.5s-4.39,1.58-6.62,2.35c5.57-1.91,11.35-3.87,17-6.12a132.74,132.74,0,0,0,16.52-7.81c2-1,4.62,0,7.17.15s5.09-.34,6.7-4.14c-15.07,4-31.1,7.51-47.14,12.43a1.08,1.08,0,0,0,0-.19,157.73,157.73,0,0,1-21.3,5.38c1.12-.39,2.25-.79,3.34-1.12a11.62,11.62,0,0,1,3.2-.6c-5.5.16-11,.43-16.41.72s-11,.44-16.5.38c7.78-2.21,15.33-4.2,22.78-6.2s14.8-4,22-6.13c14.39-4.33,28.25-9.33,40.07-16.32-4.33-.27-8.23,1.92-12.16,3.9a32.12,32.12,0,0,1-5.91,2.47,10.87,10.87,0,0,1-6,.16c11.86-4.51,23.54-9.07,35.45-13.5a19.82,19.82,0,0,0-2.06,2.13c8.35-.78,14.83-6.54,22-9.36l2-.68c-.66.2-1.31.44-2,.68q-10.1,3.54-20,7.23a26.83,26.83,0,0,1,9.38-5c-2.68-.53-5.83.18-9,.89-3.8,1.67-7.62,3.34-11.49,4.83A59.19,59.19,0,0,0,260,93.73c-8.42,2.25-16.48,5.91-24.78,8.55q6.34-3.3,12.56-6.73c7.51-2.64,15-5.46,22.44-8.54l-.76.54,1.6-.89c2.9-1.22,5.79-2.46,8.67-3.76a23.83,23.83,0,0,0,6.5-5.79l1.24-.65c-.46,1.07-.52,2,1.19,1.57,7.51-1.06,13-7.94,21.85-8.38,2.3-.1,4.79-1.64,7.45-3.41,1,.21,1.28-.29,1.44-1l1.75-1.13a19.11,19.11,0,0,0,4.39-2.43,30.67,30.67,0,0,0-4.39,2.43c-.57.26-1.14.53-1.68.83.15-.76.28-1.65,1.13-2a241.81,241.81,0,0,0-33.13,13.52c.39-.88,1.05-1.89,1.27-2.45-.83,1-1.66,2.09-2.51,3.1-3.49,1.84-6.91,3.81-10.26,6a9.48,9.48,0,0,0,2-3.22C267.7,84.44,257.81,90,247.77,95.55c-10.18,3.56-20.38,6.78-30.53,9.83a57.27,57.27,0,0,0,18-3.1,182.4,182.4,0,0,1-22.45,9.9,97.57,97.57,0,0,1-24.15,5.48c2.29-3.36,5.65-6.25,6.39-10.21-.29-.83-1.69-1-2.69-1.3s-1.61-.53-.34-1.38c4.44-3.77,8.64-5.23,11.94-7.15s5.61-4.22,5.83-9.59c-.1-1.4-3.69-3.25-6.78-5.29s-5.72-4.11-4.4-5.6A124.26,124.26,0,0,1,210.74,70a39.78,39.78,0,0,0,5-1.61c.28.09.41-.58.61-1.35,5.68-2.9,11.29-5.55,14.71-6.51,1.27-.34,2.52-.69,3.78-1.07a6.38,6.38,0,0,1,2.47,1.21,10,10,0,0,1,1.55-2.45q5-1.64,9.92-3.52c2.13-.1,4.29-.08,6.35-.29-.31-.54-1-1.15-.9-1.86,4.1-1.68,8.15-3.44,12.24-5.25a14.29,14.29,0,0,1,6,1.1c2-7.07,13.79-8.86,20.91-12.83l-.1-.19Q299,33,305,30.79a13.39,13.39,0,0,1,2.56,1c.64-1.24,1.66-1.7,2-2.32a33.21,33.21,0,0,1,5-.41c1.6,0,3.16,0,4.74.12.34-.61.7-2.64,1.76-3.06a49.58,49.58,0,0,0,6.34-2.1c2.54-.54,5.05-1.11,7.7-1.54a129.12,129.12,0,0,1,27-1.64,8.59,8.59,0,0,1,.73,2.39c1.23-1.28,3.26-.59,4.42-1.34a1.53,1.53,0,0,0-.23,1.15,5.33,5.33,0,0,1,4.36-.48,26,26,0,0,0,4.16,1.3c.82-.06,1.56-1,2.38-1.24l1.22.22a10.22,10.22,0,0,0,6.23,2.87c2.09.27,4.28.1,6.57.33a117.31,117.31,0,0,1,13.08,5C408.28,32.47,409,35.37,410.82,37.55Z" transform="translate(7.34 2.4)" fill="#fff"/><path d="M286.19,41.28q5.82-1.2,11.71-2.21C294,40.62,291.2,43.33,286.19,41.28Z" transform="translate(7.34 2.4)" fill="#fff"/><path d="M195.52,75.52a14,14,0,0,0-5-2.18,209.07,209.07,0,0,0,23.17-8.06l.09.18c-3,1.7-7.14,2.7-10.67,4a26.25,26.25,0,0,0-2.53,1,13.35,13.35,0,0,0-2.19,1.27A7.61,7.61,0,0,0,195.52,75.52Z" transform="translate(7.34 2.4)" fill="#fff"/><path d="M276.05,44.24a3.75,3.75,0,0,1,.23-.77h0A1.5,1.5,0,0,1,276.05,44.24Z" transform="translate(7.34 2.4)" fill="#fff"/><path d="M189,112.54l-.9.15c2.14-.93,4.28-1.8,6.42-2.68A18.85,18.85,0,0,1,189,112.54Z" transform="translate(7.34 2.4)" fill="#fff"/><path d="M164.41,114.21a114.77,114.77,0,0,1-13.89.94,38.84,38.84,0,0,1-16.34-6.41,118.58,118.58,0,0,0,14.74,3.72A117.63,117.63,0,0,0,164.41,114.21Z" transform="translate(7.34 2.4)" fill="#fff"/><path d="M180.55,77.58c-1.65-.38-3.35-1-5-1.5,1.5-.12,3-.33,4.51-.52A4.44,4.44,0,0,0,180.55,77.58Z" transform="translate(7.34 2.4)" fill="#fff"/><path d="M206.85,105.24l-1.31.49c1-.9,1.9-1.82,2.82-2.79C208.1,103.49,207.34,104.42,206.85,105.24Z" transform="translate(7.34 2.4)" fill="#fff"/><path d="M164.61,75.92c1,.15,2,.18,3.06.27a7.72,7.72,0,0,0-1.62,1.75A7.08,7.08,0,0,0,164.61,75.92Z" transform="translate(7.34 2.4)" fill="#fff"/><path d="M150.05,76.15a11.33,11.33,0,0,1-1.77-.36c-.57-.16-1.13-.33-1.66-.53,1.41-.05,2.83,0,4.26,0C150.5,75.82,150.19,76.35,150.05,76.15Z" transform="translate(7.34 2.4)" fill="#fff"/><path d="M87.48,231.82l-3-1.4c-1-.49-1.9-1-2.85-1.55-1.87-1.07-3.78-2.13-5.58-3.28-3.54-2.36-7.09-4.75-10.28-7.37l-2.43-1.93-1.2-1-1.14-1c-1.51-1.34-3-2.66-4.5-4s-2.87-2.68-4.27-4l-4.12-3.93,6.56,6.16c2.25,2,4.61,4,6.91,5.92a71,71,0,0,1-9.2-9c-1.33-1.59-2.7-3.19-3.91-4.93s-2.42-3.55-3.63-5.46c3.22.71,6,6,8.86,5.21,7.41,7.63,15.05,15.42,23.59,22.79a148.85,148.85,0,0,0,28.55,19.78,11.45,11.45,0,0,1-11.33-3.75c-1.27-1.33-2.35-2.77-3.47-4.05A11.74,11.74,0,0,0,87.48,231.82Z" transform="translate(7.34 2.4)" fill="#fff"/><path d="M32.47,175.22c1.32,1.61,2.59,3.19,3.82,4.77A20.85,20.85,0,0,1,32.47,175.22Z" transform="translate(7.34 2.4)" fill="#fff"/><path d="M221.45,206.87c1.88-1.19,3.75-2.39,5.65-3.34A25.33,25.33,0,0,1,221.45,206.87Z" transform="translate(7.34 2.4)" fill="#fff"/><path d="M119.84,230.52a31.52,31.52,0,0,1,4-.06c1.14.42,2.31.7,3.48,1l3.53,1c2.37.59,4.78,1.08,7.21,1.62,2.43.39,4.89.85,7.36,1.17l3.73.42,1.88.2c.62.06,1.25.08,1.88.13-1.36,0-2.74-.09-4.13-.13s-2.79-.05-4.2,0l-4.24-.18c-1.43-.05-2.85-.11-4.27-.3s-2.85-.34-4.26-.56a39.27,39.27,0,0,1-4.16-1,28.12,28.12,0,0,1-4-1.37A37.46,37.46,0,0,1,119.84,230.52Z" transform="translate(7.34 2.4)" fill="#fff"/><path d="M111.85,222.1a51.13,51.13,0,0,1-22.49-16A67.42,67.42,0,0,0,111.85,222.1Z" transform="translate(7.34 2.4)" fill="#fff"/><path d="M268.1,150.17a1.61,1.61,0,0,1-.18-1.25,1.8,1.8,0,0,0,.37-.88c3.65-1.09,7.3-2.15,11-3.16-.73.65-1.11,1.87-1.95,2.32C273.34,148.35,271.48,146.69,268.1,150.17Z" transform="translate(7.34 2.4)" fill="#fff"/><path d="M219.28,208l-.11.34c-.64.42-1.27.84-1.91,1.23l-.31,0A19.46,19.46,0,0,1,219.28,208Z" transform="translate(7.34 2.4)" fill="#fff"/><path d="M263.75,152.05a8.45,8.45,0,0,0-1.61-2.12l6.11-1.88a4.67,4.67,0,0,0-.33.87C267,150.14,264.58,150.27,263.75,152.05Z" transform="translate(7.34 2.4)" fill="#fff"/><path d="M219.61,166.11c-1.08.58-1.23,2.76-1.54,3.44a68.61,68.61,0,0,0-10.38,1.2c-.31.66-1.37,1.18-2,2.52a14.93,14.93,0,0,0-2.73-1c7.29-2.86,14.94-6,23.15-9.35A47.74,47.74,0,0,1,219.61,166.11Z" transform="translate(7.34 2.4)" fill="#fff"/><path d="M438.49,152.47a46.6,46.6,0,0,1-4.31-2.25c-1.42-.83-2.91-1.59-4.36-2.46-2.88-1.79-6-3.38-9.05-5-6.28-2.92-13.13-5-19.76-3.69,6.85,2.9,14.64,6.65,20.19,11a25.54,25.54,0,0,1,6.39,6.6,7.62,7.62,0,0,1,1.23,6.42c-.63,2-1.91,2.53-3.57,2.08s-3.83-1.65-6.23-3.27c-1.23-.75-2.52-1.6-3.84-2.48l-1-.66-1-.6-2.1-1.19L409,155.79c-.7-.33-1.41-.62-2.09-.9a26.39,26.39,0,0,0-3.91-1.31C404,154.76,404,154.79,405,156c-1-1.21-2-2.44-3.43-1.71,1.08,1.08,2.67,2.49,4,3.89a14.62,14.62,0,0,1,1.8,2.16,6,6,0,0,1,.89,2.3c-.9.38-1.77.7-2.65,1.15a26.78,26.78,0,0,0,3.67,5.44c1.4,1.72,2.9,3.48,4.38,5.12a52,52,0,0,1,3.89,5.38,18.47,18.47,0,0,1,2.22,5.83A36.77,36.77,0,0,0,404,167a39.88,39.88,0,0,0-5.74-2.86c-1-.4-2-.83-3.07-1.18s-2.11-.61-3.18-.9l-1.62-.43-1.66-.29-3.35-.56L382,160.5l-1.73-.12H378.5l-3.51,0-3.55.29-1.78.16-1.79.26-3.57.56-3.58.77-1.78.4-1.79.48-3.55,1-3.55,1.14c-9.43,3.07-18.62,7.32-27.58,11.43A137.81,137.81,0,0,0,296.08,197c-8,7.6-15.44,15.89-22.75,24.26-2.94,2.73-11.7,6.55-18.25,9l-16,10.11c-2.78,1.71-5.44,3.51-8.26,5.31q-2.09,1.36-4.15,2.79t-4.23,2.87a109.13,109.13,0,0,1-20.24,8.44c-3.53,1.16-7.31,2.05-11,2.94s-7.66,1.54-11.69,2.05-8.09.93-12.22,1.28l-6.33.3c-2.11.11-4.31.05-6.47.07h-3.26l-3.32-.13-3.33-.13c-1.11,0-2.23-.11-3.37-.21l-6.81-.56-6.92-.84a11.82,11.82,0,0,1-5.31-2.19,7.27,7.27,0,0,1-3-3.66c-.31-1.23.18-2.38,1.82-3.14a11.27,11.27,0,0,1,3.37-.84c1.43-.17,3.2-.16,5.36-.18l5.36-.21c1.78-.08,3.54-.24,5.29-.33,3.52-.14,6.95-.55,10.39-.77,6.8-.7,13.51-1.34,20-2.32-.59,1.36-2.51,1.88-4.63,2.31s-4.5.66-5.94,1.73a76.69,76.69,0,0,0,27.66-2.28c-3.08.78-6.12,1.61-9.31,2.23-1.58.32-3.15.67-4.76,1l-4.87.8c16.37-2.4,33.11-6.89,47.67-13.92,2.67-1.16,6-.28,9.28-.25s6.63-.72,9.13-5.05c-9.86,2.81-20.22,5.34-30.92,7.62s-21.8,4.26-33.31,5.85a.78.78,0,0,0,.09-.21,128.19,128.19,0,0,1-30.41,1.13c3.29,0,6.56-.48,9.4,0-1.89-.33-3.75-.63-5.61-.92l-5.57-1.06c-.93-.18-1.85-.32-2.77-.52l-2.75-.62c-1.83-.44-3.67-.75-5.48-1.26a161,161,0,0,1-21.18-6.82A257.77,257.77,0,0,0,138,243.78a189,189,0,0,0,31-1.48c20.17-2.67,39-8.55,54.8-17-5.47,0-10.67,2.6-16,4.84s-10.74,4.17-15.76,2.9c16.15-4.6,31.48-10.36,46.87-16.31a30.29,30.29,0,0,0-2.8,2.54c10.62-1.59,19.19-8.68,28.34-12.61l2.5-1c-.84.3-1.67.64-2.5,1L238.8,216.76A44,44,0,0,1,251,210.29c-3.29-.3-7.3.8-11.32,1.87-2.46,1.1-4.9,2.2-7.4,3.24L228.54,217l-3.76,1.47a83.14,83.14,0,0,0,20.05-13.22c-10.67,3.3-21.07,8-31.84,11.27q8.37-3.9,16.44-8.17,14.44-5.24,28.6-11.61l-1,.69,2-1.17c3.69-1.66,7.35-3.38,11-5.15a35.31,35.31,0,0,0,8.41-7.14l1.58-.86c-.65,1.24-.77,2.21,1.37,1.59,4.7-1,8.83-3.59,13.19-6.06s8.94-4.9,14.42-5.54c2.87-.37,6.08-2.25,9.51-4.41a1.48,1.48,0,0,0,1.86-1.17l2.25-1.39a27.19,27.19,0,0,0,5.66-2.94,52.59,52.59,0,0,0-5.66,2.94c-.73.33-1.45.68-2.14,1a3.06,3.06,0,0,1,1.54-2.31,296.62,296.62,0,0,0-42,18.24c.53-1,1.42-2.2,1.71-2.84-1.09,1.25-2.18,2.49-3.29,3.7q-6.64,3.65-13.09,7.77a12.47,12.47,0,0,0,2.72-3.78c-13,6.24-25.66,13.52-38.71,20.39q-9.75,3.55-19.65,6.51c-6.59,2-13.2,3.75-19.86,5.23,7.72.27,15.5-1.26,23.07-3.57a165.56,165.56,0,0,1-30,10.71,95.75,95.75,0,0,1-32.16,2.36c1.94-1.49,4.17-2.83,6.14-4.24a14.64,14.64,0,0,0,4.62-5.1c-.35-1.84-6.64-2-3.08-3.36,1.6-.8,3.13-1.36,4.59-2s2.87-1,4.22-1.46l3.86-1.24a32.42,32.42,0,0,0,3.49-1.21,15.13,15.13,0,0,0,5.58-3.42,11.8,11.8,0,0,0,3.1-6.4c0-.76-1-1.63-2.37-2.68s-3.25-2.21-4.92-3.38c-3.35-2.38-6-4.94-4.24-6.36,1.52-.76,3.73-1.87,6.3-2.95,1.3-.62,2.69-1.24,4.15-1.87l4.59-2.06a48.45,48.45,0,0,0,6.07-1.66c.32.09.55-.64.86-1.47,7-3.16,14-6.31,18.15-7.57,1.56-.44,3.09-.9,4.64-1.41a7.1,7.1,0,0,1,2.9,1.14,13.41,13.41,0,0,1,2.05-2.8q6.21-2.16,12.29-4.72c2.6-.31,5.23-.49,7.76-1-.34-.56-1.1-1.17-1-2,5.09-2.25,10.18-4.64,15.29-7.09a18.48,18.48,0,0,1,7.37.52c2.88-8,17.51-11.34,26.72-16.43l-.1-.19c4.84-2.11,9.78-4.2,15-6.15a16.16,16.16,0,0,1,3.14.88c.89-1.43,2.24-2,2.7-2.69a64.87,64.87,0,0,1,12.43-1c.49-.68,1.16-2.89,2.58-3.4,1.46-.35,2.86-.78,4.27-1.2s2.8-.86,4.17-1.33l2.49-.52,2.55-.45c1.72-.29,3.42-.61,5.17-.84a129.53,129.53,0,0,1,36,.11,7.4,7.4,0,0,1,.53,2.62c1.87-1.13,4.42-.07,6.11-.66a1.42,1.42,0,0,0-.54,1.16,9.42,9.42,0,0,1,3.41-.28,8.54,8.54,0,0,1,2.45.65c1.49.63,2.85,1.5,5.18,2.3,1.08.14,2.24-.62,3.37-.71l1.54.52a15.61,15.61,0,0,0,7.39,4.75c1.31.48,2.66.84,4,1.2a30.64,30.64,0,0,1,4.21,1.27c2.63,1.52,5.26,3,7.71,4.72l3.68,2.5,3.5,2.7a10.24,10.24,0,0,1,3.51,4.44C437.2,149.39,437.65,151,438.49,152.47Z" transform="translate(7.34 2.4)" fill="#fff"/><path d="M280.67,144.51q7.27-1.95,14.73-3.67C290.43,142.93,286.75,146.21,280.67,144.51Z" transform="translate(7.34 2.4)" fill="#fff"/><path d="M168.66,186.73a15,15,0,0,0-5.2-3,109.29,109.29,0,0,0,13.23-2.55c4.59-1.24,9.28-2.66,14.16-4.4l.08.2a34.2,34.2,0,0,1-6.24,2.21c-1.11.29-2.24.61-3.34.88s-2.19.51-3.25.81-2.06.58-3,.91a16.53,16.53,0,0,0-2.66,1.2A8.58,8.58,0,0,0,168.66,186.73Z" transform="translate(7.34 2.4)" fill="#fff"/><path d="M267.92,148.92a4.67,4.67,0,0,1,.33-.87h0A1.8,1.8,0,0,1,267.92,148.92Z" transform="translate(7.34 2.4)" fill="#fff"/><path d="M152.81,224.3l-1.16,0c2.94-.52,5.86-.91,8.75-1.5a19.62,19.62,0,0,1-3.63,1.07C155.49,224.06,154.16,224.19,152.81,224.3Z" transform="translate(7.34 2.4)" fill="#fff"/><path d="M122.12,217.94c-1.43-.35-2.84-.78-4.27-1.17l-2.14-.6-2.1-.74c-1.39-.5-2.81-1-4.2-1.49l-4.11-1.75A53.68,53.68,0,0,1,89,196.88c2.5,2.06,4.92,4.26,7.55,6.16l2,1.49,1,.75,1,.69,4.06,2.78A109.58,109.58,0,0,0,122.12,217.94Z" transform="translate(7.34 2.4)" fill="#fff"/><path d="M152.06,186.28a14.62,14.62,0,0,1-2.43-1.3l-2.32-1.43,2.35.3a18.45,18.45,0,0,0,2.38.23A4.67,4.67,0,0,0,152.06,186.28Z" transform="translate(7.34 2.4)" fill="#fff"/><path d="M176.9,219.32l-1.73.44c1.38-.89,2.73-1.82,4.06-2.75C178.8,217.56,177.66,218.48,176.9,219.32Z" transform="translate(7.34 2.4)" fill="#fff"/><path d="M136.46,180a10.22,10.22,0,0,0,1.47.67l1.49.63a8.13,8.13,0,0,0-2.2,1.21A8.15,8.15,0,0,0,136.46,180Z" transform="translate(7.34 2.4)" fill="#fff"/><path d="M120.66,173.8a16.23,16.23,0,0,1-2-1.32c-.63-.51-1.24-1-1.81-1.56.87.42,1.73.86,2.58,1.31s1.72.74,2.55,1.13C121.32,173.73,120.73,174.08,120.66,173.8Z" transform="translate(7.34 2.4)" fill="#fff"/><path d="M54.33,316.57c-14.84-10-28-22-40.11-32.44q7.23,6.25,14.67,12.4A135.51,135.51,0,0,1,9.64,277c3.24.77,7,6,9.64,5.35,17.27,15.58,33.39,33,51.32,48.73a13.82,13.82,0,0,1-6.33-2.28,16.39,16.39,0,0,1-3.87-4C58.29,321.79,57,318.5,54.33,316.57Z" transform="translate(7.34 2.4)" fill="#fff"/><path d="M-7.34,257.6c1.73,1.55,3.39,3.07,5,4.6A30.22,30.22,0,0,1-7.34,257.6Z" transform="translate(7.34 2.4)" fill="#fff"/><path d="M205.9,344.87c1.21-.54,2.42-1.07,3.62-1.57s2.35-1.14,3.52-1.64a27.23,27.23,0,0,1-3.44,1.88C208.38,344,207.14,344.44,205.9,344.87Z" transform="translate(7.34 2.4)" fill="#fff"/><path d="M86.67,325.13c1.39.47,2.76,1,4.11,1.55a276.27,276.27,0,0,0,28,18c-5.53-2.86-11.3-5.55-16.92-8.57-2.76-1.56-5.5-3.18-8.07-5A51.71,51.71,0,0,1,86.67,325.13Z" transform="translate(7.34 2.4)" fill="#fff"/><path d="M79.82,314.65a106.3,106.3,0,0,1-23.48-21.92A159.44,159.44,0,0,0,79.82,314.65Z" transform="translate(7.34 2.4)" fill="#fff"/><path d="M256,281.24a1.19,1.19,0,0,1-.31-1.09,2.36,2.36,0,0,0,.31-1c3.71-2.36,7.51-4.75,11.37-7.1-.71.88-1,2.16-1.84,2.9C261.33,277.6,259.27,276.74,256,281.24Z" transform="translate(7.34 2.4)" fill="#fff"/><path d="M203.14,345.9l-.2.3-2.54.95-.35-.06C201.06,346.62,202.1,346.28,203.14,345.9Z" transform="translate(7.34 2.4)" fill="#fff"/><path d="M251.64,284.58a5.88,5.88,0,0,0-1.88-1.39l6.21-4a6.36,6.36,0,0,0-.26.94C254.82,281.64,252.35,282.63,251.64,284.58Z" transform="translate(7.34 2.4)" fill="#fff"/><path d="M208.31,308.46c-1,.53-1.11,2.41-1.41,3-1.56.11-3.07.36-4.62.37-.78,0-1.55.09-2.33.17s-1.56.23-2.38.27c-.34.54-1.31.89-2,2a22.93,22.93,0,0,0-2.27-1.14c1.67-.4,3.33-.94,5-1.34,1.68-.65,3.39-1.16,5.12-1.81l2.59-1.1c.88-.38,1.76-.66,2.66-1.13,1.77-.81,3.63-1.75,5.55-2.76-1,.7-1.91,1.27-2.91,1.88S209.35,308,208.31,308.46Z" transform="translate(7.34 2.4)" fill="#fff"/><path d="M434.87,197.82c-6.73,2.55-14.33,4.14-21.71,6.38s-14.51,5.1-20,9.88c8-2,17.39-4.59,25.35-5.75s14.42-1,16.55,2.16c1.07,1.56.31,2.74-1.56,3.75a19.18,19.18,0,0,1-3.61,1.37c-1.43.43-3.06.85-4.82,1.25-7,1.6-16.07,3.35-21.72,5.89l3.59.18c-1.79-.11-3.59-.18-4.61,1.16,3.59.13,10-.83,12.46.78-.69.85-1.37,1.74-2.05,2.61,4.76,1,10.75.59,16.71.34s11.88-.28,16.36,1.24a87.58,87.58,0,0,0-32.69,1.58,148.29,148.29,0,0,0-33.78,12.45A258.74,258.74,0,0,0,347,262.68c-10.38,7.26-20.32,15-29.9,22.52a194.44,194.44,0,0,0-14.38,14.16c-4.5,4.89-8.65,9.91-12.68,15.09-8.07,10.37-15.59,21.29-24.12,32.25a29.41,29.41,0,0,1-3.75,3.37c-1.57,1.27-3.51,2.63-5.57,4a132.09,132.09,0,0,1-13.46,7.82c-1.79,1.21-3.68,2.4-5.57,3.58l-5.89,3.38c-1,.55-1.95,1.15-3,1.65l-3.1,1.53-3.12,1.53c-1,.51-2.07,1-3.16,1.45l-6.49,2.73c-1.08.48-2.21.84-3.32,1.25l-3.36,1.19-3.37,1.19-3.44,1c-2.3.66-4.61,1.43-6.94,2a104.58,104.58,0,0,1-30.1,1.3,127.94,127.94,0,0,1-28.2-6.09c-4.52-1.41-8.77-3.15-13.08-4.85-4.16-1.85-8.42-3.66-12.42-5.7s-8-4.09-12-6.17c-3.87-2.18-7.89-4.29-11.74-6.53a13.47,13.47,0,0,1-4.07-3.66,7.11,7.11,0,0,1-1.56-4.07c.06-1.14.81-1.93,2.49-2a10.93,10.93,0,0,1,3.27.54,34.52,34.52,0,0,1,5,1.86c3.3,1.33,6.73,2.59,10,4l10.14,4c3.46,1.28,6.79,2.73,10.32,4l5.22,2,5.33,1.86c-1.18.75-3.38.21-5.74-.48s-4.75-1.67-6.62-1.54l3.6,2c1.18.65,2.35,1.27,3.57,1.81,2.41,1.11,4.75,2.21,7.19,3.13s4.94,1.76,7.5,2.54,5.32,1.33,8.13,1.94L143,373.07l-2.81-.63-2.74-.75L132,370.16l-5.32-1.75,3.34,1.12c1.11.38,2.24.75,3.42,1.07,2.33.67,4.68,1.37,7.07,2l7.41,1.74c2.51.52,5.11.92,7.7,1.37a111.09,111.09,0,0,0,32.54.26c4-.35,8,.7,12.44,1.1a17.45,17.45,0,0,0,3.39,0,21.1,21.1,0,0,0,3.51-.59,17.7,17.7,0,0,0,3.62-1.37,20.94,20.94,0,0,0,3.57-2.55l-2.66.59c-.89.2-1.77.39-2.68.52l-5.44.81-2.71.38-2.74.22-5.48.4c-1.82.09-3.65.06-5.48.08h-4.09l-1.36-.08c-3.62-.23-7.24-.35-10.78-.87-1.78-.22-3.56-.42-5.32-.67l-5.22-.94-2.6-.47c-.86-.17-1.7-.39-2.55-.58l-5.08-1.18c-1.7-.38-3.31-.91-5-1.35s-3.32-.88-4.93-1.4l-4.82-1.54-2.41-.76-2.35-.83a.86.86,0,0,0,.19-.11c-11.33-3.65-20.73-8.34-30.38-13.44,3.11,1.37,6.44,2.53,8.94,4.26-13.48-8.93-26.18-17.32-38.15-26.37,9.72,4.57,19.44,9.6,29.52,14.54a298.9,298.9,0,0,0,31.65,13.67c11.09,3.9,22.87,6.95,35,7.85a97.27,97.27,0,0,0,35.86-3.73,39.82,39.82,0,0,0-5.22.17c-1.78.07-3.58.24-5.39.48-.91.1-1.82.28-2.74.37l-2.77.29c-1.85.18-3.71.49-5.56.61a56.88,56.88,0,0,1-10.77,0,26.86,26.86,0,0,1-4.88-.91,22.72,22.72,0,0,1-4.27-1.8,123.84,123.84,0,0,0,31.5.18,121.21,121.21,0,0,0,31.1-8.26l-4,2.82a30.19,30.19,0,0,0,5-1.38c1.64-.57,3.26-1.21,4.87-1.89s3.1-1.53,4.63-2.35,2.95-1.74,4.39-2.66c5.71-3.68,10.86-7.78,16-11.28l2.8-1.84c-.94.59-1.88,1.21-2.8,1.84-4.83,3.12-9.77,6.16-14.9,9a141.33,141.33,0,0,1-16,7.74c4.62-3.06,9.63-5.79,15.49-9-3.82.65-8.64,2.76-13.68,4.48l-4.72,2.17c-.77.38-1.59.68-2.4,1l-2.44.91-2.44.91-1.21.44L212,354l-5,1.42a70.9,70.9,0,0,0,26.29-14.93c-1.57.72-3.14,1.45-4.75,2.14-.8.34-1.58.72-2.4,1.05l-2.45,1-4.87,2-5,1.71c-.84.28-1.66.58-2.5.84l-2.55.69c-1.7.44-3.38.94-5.09,1.32a89.75,89.75,0,0,1-10.33,1.63,53,53,0,0,0,5.55-1.26c1.82-.51,3.66-1,5.46-1.54l5.33-1.91,1.32-.47,1.29-.57,2.58-1.13,2.25-.75,1.12-.38,1.09-.45,4.39-1.81c1.48-.58,2.9-1.27,4.33-2s2.82-1.42,4.23-2.16a168.71,168.71,0,0,0,16.12-9.88l-1.08,1c.75-.59,1.52-1.17,2.25-1.77,4-2.81,8-5.76,11.84-8.78A52.3,52.3,0,0,0,270,309l1.62-1.41c-.59,1.41-.65,2.37,1.61,1C283.18,303,290.13,292.49,302,287c3.09-1.44,6.41-4.47,10-7.82a2.22,2.22,0,0,0,1.92-1.82l2.33-2.16a50.21,50.21,0,0,0,5.9-5c-2,1.51-4,3.22-5.9,5-.77.59-1.52,1.19-2.25,1.81a3.91,3.91,0,0,1,1.45-2.73c-7.36,5-14.78,10.25-22.11,15.78s-14.53,11.4-21.63,17.56c.49-1.17,1.35-2.63,1.61-3.35-1.07,1.6-2.13,3.2-3.23,4.76q-6.86,6-13.65,12.22a17.38,17.38,0,0,0,2.75-4.56c-6.87,5.31-13.73,10.73-21,15.78-3.61,2.55-7.33,5-11.2,7.27C225,340.89,223,341.88,221,343l-3,1.57-3.11,1.38a98.75,98.75,0,0,1-24.75,5,110.47,110.47,0,0,1-24.7-1.17,63.82,63.82,0,0,0,27.92,3A94.1,94.1,0,0,1,174,354.61l-4.88-.16-1.22-.05-1.21-.13-2.42-.25-2.41-.27-1.21-.14-1.2-.21-4.77-.87c-1.6-.25-3.14-.73-4.71-1.1s-3.14-.75-4.65-1.27c-3-1-6.13-1.93-9.06-3.18-1.48-.6-3-1.18-4.42-1.82l-4.29-2-2.14-1L123.3,341l-4.13-2.32c2.62-.2,5.48,0,8.17-.14a17.17,17.17,0,0,0,7.1-1.51c.41-1.58-6.43-5-2-4.2,4.14.57,7.84,1.18,11.15,2,3.36.56,6.33,1.39,9.11,1.63a37,37,0,0,0,3.94.28,17.87,17.87,0,0,0,3.59-.49,12.2,12.2,0,0,0,3.2-1.29,12.46,12.46,0,0,0,2.81-2.52c.36-.58-.32-1.67-1.37-3s-2.48-3.05-3.72-4.63a27.56,27.56,0,0,1-1.66-2.33,10.75,10.75,0,0,1-1.06-2.13c-.43-1.24-.24-2.1,1-2.25.49,0,1,.07,1.62.07l1.84,0,2,.09,1.09.06,1.12,0h2.33c.79,0,1.61.05,2.42,0l2.49-.11,1.26,0c.43,0,.84-.09,1.26-.12,1,.1,2,.17,3,.23a8.57,8.57,0,0,0,1.52,0l1.54-.09c.27.15.66-.39,1.13-1a22.07,22.07,0,0,0,2.6-.47c.86-.18,1.7-.35,2.53-.49,1.64-.38,3.21-.85,4.7-1.15s2.84-.88,4.1-1.17l.91-.22.86-.28c.55-.17,1.07-.31,1.54-.43l2.14-.5c.71-.15,1.4-.46,2.11-.68a6.6,6.6,0,0,1,2.63.93,16.83,16.83,0,0,1,1.92-2.55,87.61,87.61,0,0,0,11.72-6l3.89-1.26c1.3-.47,2.61-.93,3.88-1.47-.39-.42-1.2-.78-1.12-1.54,5-3.43,10.05-7.23,15.13-11.24a24.35,24.35,0,0,1,7.72-2.09c1.14-4.24,5.42-8.47,10.68-12.75s11.44-8.46,16-12.49l-.12-.14c4.87-3.71,9.84-7.39,15-11a18.48,18.48,0,0,1,3.4-.33c.75-1.59,2-2.59,2.42-3.38A92.86,92.86,0,0,1,311.39,241c.39-.79.67-3,2-3.93,2.83-1.69,5.47-3.47,8-5.27,3.18-1.83,6.42-3.62,9.75-5.37a287.31,287.31,0,0,1,34.31-15.07,5.69,5.69,0,0,1,1.55,1.77c1.24-1.77,4-2.21,5.28-3.48a1.13,1.13,0,0,0,0,1.14c4.48-3.63,6.28-2.31,11.12-3.74,1-.5,1.66-1.68,2.59-2.33l1.62-.45c6.64,1,11.37-2.14,17.33-4.31,6.23-1.36,12.49-2.52,18.75-3.55C428.69,195.57,431.18,197.29,434.87,197.82Z" transform="translate(7.34 2.4)" fill="#fff"/><path d="M268.8,271.24q7.57-4.58,15.26-8.87C279,266.11,275.45,270.52,268.8,271.24Z" transform="translate(7.34 2.4)" fill="#fff"/><path d="M156.93,315a22.61,22.61,0,0,0-2.06-2.62,17,17,0,0,0-2.42-2.16,88.05,88.05,0,0,0,15.09,3.85c1.22.15,2.44.32,3.66.5l3.61.24c1.22.15,2.39,0,3.58.07h1.78c.59,0,1.17-.09,1.76-.12l0,.19c-.47.09-1,.17-1.45.24s-1,0-1.54,0c-1.05,0-2.13,0-3.23-.05-2.23-.29-4.49-.45-6.74-.85a49.36,49.36,0,0,0-6.46-.52,23.12,23.12,0,0,0-2.95.26A9.14,9.14,0,0,0,156.93,315Z" transform="translate(7.34 2.4)" fill="#fff"/><path d="M255.71,280.15a6.36,6.36,0,0,1,.26-.94l0,0A2.36,2.36,0,0,1,255.71,280.15Z" transform="translate(7.34 2.4)" fill="#fff"/><path d="M123.23,335.54l-1.24-.63q2.52.85,5,1.75l5,1.64a35.58,35.58,0,0,1-4.35-1.05C126.2,336.76,124.72,336.15,123.23,335.54Z" transform="translate(7.34 2.4)" fill="#fff"/><path d="M91.54,315c-6.11-3.72-12-7.75-17.93-11.85A124,124,0,0,1,55,283.47C66.78,294.32,78.65,305.15,91.54,315Z" transform="translate(7.34 2.4)" fill="#fff"/><path d="M137.11,305.51c-1.93-1.56-3.76-3.58-5.62-5.39,2.15,1.26,4.3,2.6,6.45,3.67C137.28,304.11,137.31,305,137.11,305.51Z" transform="translate(7.34 2.4)" fill="#fff"/><path d="M151.41,343.76l-2.08-.47c1.89-.05,3.78-.14,5.64-.24C154.25,343.27,152.61,343.46,151.41,343.76Z" transform="translate(7.34 2.4)" fill="#fff"/><path d="M115.41,288.76c1.51,1.19,3,2.44,4.55,3.55a19.23,19.23,0,0,0-3.63-.61A7,7,0,0,0,115.41,288.76Z" transform="translate(7.34 2.4)" fill="#fff"/><path d="M90.21,270.85c-2.16-1.75-4.21-3.6-6.1-5.42l8,5.72C91.16,271.15,90.38,271.2,90.21,270.85Z" transform="translate(7.34 2.4)" fill="#fff"/></g></svg>